<svg id="Livello_1" data-name="Livello 1" xmlns="http://www.w3.org/2000/svg" viewBox="0 0 787.95 278"><defs><style>.cls-1{fill:#fff;}</style></defs><title>logo-white</title><path class="cls-1" d="M231.18,15A31.85,31.85,0,0,1,263,46.82V231.18A31.85,31.85,0,0,1,231.18,263H46.82A31.85,31.85,0,0,1,15,231.18V46.82A31.85,31.85,0,0,1,46.82,15H231.18m0-15H46.82A46.82,46.82,0,0,0,0,46.82V231.18A46.82,46.82,0,0,0,46.82,278H231.18A46.82,46.82,0,0,0,278,231.18V46.82A46.82,46.82,0,0,0,231.18,0Z" transform="translate(0 0)"/><path class="cls-1" d="M451.19,104.36q13.56,15,13.56,42.12v76.64H431.43V150.29q0-15.71-8.09-24.4t-22.13-8.68q-14.28,0-22.85,9.28t-8.57,26.66v70H336.23V47h33.56v70.68A42,42,0,0,1,387,96.86q12-7.5,27.73-7.5Q437.62,89.36,451.19,104.36Z" transform="translate(0 0)"/><path class="cls-1" d="M620.4,91.27V223.12H586.84V196.46a42,42,0,0,1-17.25,20.83q-12,7.5-27.73,7.49-22.85,0-36.41-15T491.88,167.9V91.27H525.2v72.82q0,15.72,8.09,24.4t21.9,8.69q14.5,0,23.08-9.29t8.57-26.65v-70Z" transform="translate(0 0)"/><path class="cls-1" d="M759.63,97.69q13.32,8.1,20.82,23.44t7.5,36.06q0,20.72-7.5,36.06t-20.82,23.44a56.62,56.62,0,0,1-30,8.09q-16.67,0-28.44-8a43.53,43.53,0,0,1-16.78-21.3v27.61H650.86V47h33.56v71.64A43,43,0,0,1,701.2,97.45Q713,89.6,729.64,89.6A56.71,56.71,0,0,1,759.63,97.69Zm-65.57,31.54q-9.88,10.35-9.88,28,0,17.38,9.88,27.73t25.11,10.35q15.71,0,25.23-10.11t9.52-28q0-17.85-9.52-28.08t-25.23-10.24Q703.93,118.87,694.06,129.23Z" transform="translate(0 0)"/><path class="cls-1" d="M74.6,55.09v98.53q0,19.75,8.69,29.63t25.11,9.88q16.17,0,24.87-9.88T142,153.62V55.09h33.32v98.53q0,23.32-8.68,39.39a56,56,0,0,1-24,23.92q-15.36,7.86-34.87,7.85-30.23,0-48.31-18.08T41.28,153.62V55.09Z" transform="translate(0 0)"/><path class="cls-1" d="M238.34,55.09v168H204.79v-168Z" transform="translate(0 0)"/></svg>